<svg xmlns="http://www.w3.org/2000/svg" viewBox="0 0 46 49"><symbol xmlns="http://www.w3.org/2000/svg" id="a" fill="#000" viewBox="0 0 46 49"><path fill-rule="evenodd" d="M4.937 21.859c.116-10.4 5.517-13.655 8.46-13.655 4.11 0 5.806 3.14 6.082 4.532s1.834 2.503 2.332.224c.5-2.28 5.335-9.234 11.275-9.234 5.44 0 7.324 5.62 7.157 10.402C39.8 27.144 23.062 37.53 20.86 44.093c-1.962-3.975-16.066-9.717-15.927-22.234zM35.029.5c-4.886 0-10.664 3.616-14.16 9.622-.944-2.17-4.308-4.533-8.303-4.533C9.345 5.59.304 9.622.304 22.64c0 16.799 16.963 20.24 20.394 25.47.233.358.993.632 1.284-.228 2.736-8.091 23.954-17.233 23.954-33.698C45.936 4.948 39.916.5 35.029.5" clip-rule="evenodd"/></symbol><use href="#a"/></svg>